<?xml version="1.0" standalone="no"?>
<!DOCTYPE svg PUBLIC "-//W3C//DTD SVG 20010904//EN"
 "http://www.w3.org/TR/2001/REC-SVG-20010904/DTD/svg10.dtd">
<svg version="1.0" xmlns="http://www.w3.org/2000/svg"
 width="700.000000pt" height="700.000000pt" viewBox="0 0 700.000000 700.000000"
 preserveAspectRatio="xMidYMid meet">
<metadata>
Created by potrace 1.14, written by Peter Selinger 2001-2017
</metadata>
<g transform="translate(0.000000,700.000000) scale(0.100000,-0.100000)"
fill="#000000" stroke="none">
<path d="M2943 5385 c-85 -19 -194 -78 -265 -144 -39 -35 -99 -114 -173 -226
-173 -262 -180 -265 -470 -275 -168 -6 -209 -10 -259 -28 -174 -63 -296 -189
-369 -379 l-22 -58 -3 -1067 c-3 -1187 -5 -1147 64 -1287 24 -49 58 -96 103
-141 72 -73 129 -110 230 -149 l66 -26 1610 -3 c1184 -2 1629 0 1680 8 229 38
423 227 470 458 13 63 15 219 13 1140 l-3 1067 -22 58 c-73 190 -195 316 -369
379 -50 18 -91 22 -260 28 -191 6 -204 8 -255 33 -71 35 -87 52 -217 248 -149
222 -218 285 -381 348 l-66 26 -520 2 c-411 1 -533 -1 -582 -12z m1063 -300
c76 -22 126 -73 245 -252 61 -90 126 -181 145 -203 54 -59 161 -126 249 -156
72 -24 99 -28 275 -33 192 -6 196 -7 248 -36 57 -31 102 -80 130 -142 16 -35
17 -113 17 -1093 l0 -1055 -27 -51 c-36 -68 -108 -130 -171 -149 -76 -23
-3158 -23 -3234 0 -63 19 -135 81 -171 149 l-27 51 -3 1034 c-3 1144 -5 1094
61 1182 19 25 58 58 88 74 53 29 57 30 249 36 176 5 203 9 275 33 88 30 195
97 249 156 19 22 84 113 145 203 117 175 169 229 241 252 68 21 945 21 1016 0z"/>
<path d="M3425 4304 c-208 -29 -363 -102 -495 -234 -156 -156 -233 -345 -233
-570 0 -72 6 -140 16 -182 73 -300 305 -532 605 -605 89 -21 275 -21 364 0
300 73 532 305 605 605 10 42 16 110 16 182 0 174 -37 301 -130 444 -108 167
-292 296 -486 341 -67 15 -213 26 -262 19z m143 -304 c140 -23 257 -93 336
-200 165 -225 119 -540 -104 -704 -225 -165 -540 -119 -704 104 -225 305 -48
736 327 799 72 12 75 12 145 1z"/>
</g>
</svg>
